PathFileType	4	(X/Y/Z)	C:/Users/opensim2020/Desktop/walking_exp_matlab/subject03_walking13_straight_01.trc	
DataRate	CameraRate	NumFrames	NumMarkers	Units	OrigDataRate	OrigDataStartFrame	OrigNumFrames	
100.00	100.00	4	46	mm	100.00	707	185	
Frame#	Time	LFHD			RFHD			LBHD			RBHD			C7			T10			CLAV			STRN			RBAK			LSHO			LUPA			LELB			LFRM			LWRA			LWRB			LFIN			RSHO			RUPA			RELB			RFRM			RWRA			RWRB			RFIN			LASI			RASI			LPSI			RPSI			LTHI			LKNE			LTIB			LANK			LHEE			LTOE			RTHI			RKNE			RTIB			RANK			RHEE			RTOE			*39			*40			*41			*42			*43			*44			*45			
		X1	Y1	Z1	X2	Y2	Z2	X3	Y3	Z3	X4	Y4	Z4	X5	Y5	Z5	X6	Y6	Z6	X7	Y7	Z7	X8	Y8	Z8	X9	Y9	Z9	X10	Y10	Z10	X11	Y11	Z11	X12	Y12	Z12	X13	Y13	Z13	X14	Y14	Z14	X15	Y15	Z15	X16	Y16	Z16	X17	Y17	Z17	X18	Y18	Z18	X19	Y19	Z19	X20	Y20	Z20	X21	Y21	Z21	X22	Y22	Z22	X23	Y23	Z23	X24	Y24	Z24	X25	Y25	Z25	X26	Y26	Z26	X27	Y27	Z27	X28	Y28	Z28	X29	Y29	Z29	X30	Y30	Z30	X31	Y31	Z31	X32	Y32	Z32	X33	Y33	Z33	X34	Y34	Z34	X35	Y35	Z35	X36	Y36	Z36	X37	Y37	Z37	X38	Y38	Z38	X39	Y39	Z39	X40	Y40	Z40	X41	Y41	Z41	X42	Y42	Z42	X43	Y43	Z43	X44	Y44	Z44	X45	Y45	Z45	X46	Y46	Z46	

162	1.610	-1021.95117	795.16187	1621.88074	-891.92157	768.23743	1619.68335	-1044.28442	675.83142	1563.13635	-915.64673	654.39624	1560.98193	-979.09558	655.60284	1397.37976	-984.24255	648.19678	1084.70996	-976.71338	784.49268	1333.05823	-989.17371	842.45465	1171.63757	-891.84436	614.84949	1216.68982	-1130.97827	728.64215	1371.34131	-1208.47986	750.96729	1181.93604	-1219.24426	793.81403	1069.82690	-1203.28955	894.85089	998.07788	-1155.72424	990.78430	944.46991	-1198.69250	973.59259	915.39691	-1183.60291	1050.44946	886.84192	-818.51154	726.80811	1352.95398	-750.44141	707.04736	1129.94373	-740.15021	709.16888	1015.85663	-738.20764	702.28772	878.62988	-773.52142	714.29559	778.15509	-729.08167	682.19104	779.60291	-744.94879	681.09442	703.40515	-1111.91772	805.16388	922.69678	-874.08685	826.78870	934.87207	-1046.47742	649.04083	941.02740	-898.87170	660.94116	959.28363	-1165.05969	771.41083	618.70374	-1155.27673	799.27655	440.59839	-1139.64136	638.84918	328.76416	-1086.97510	478.65390	203.53809	-1041.74194	433.26724	214.21638	-1079.09937	531.20563	62.11540	-833.47510	818.15082	638.77271	-885.72559	867.26807	470.32895	-884.07416	827.22821	278.28412	-938.18896	787.06781	68.60396	-986.18494	737.21588	38.65203	-960.81128	924.80927	32.15479	-987.49518	696.85748	1670.77466																		 
163	1.620	-1020.86743	808.95215	1624.05432	-890.77252	782.12726	1621.55627	-1043.17981	689.38391	1565.70459	-914.53625	668.03680	1563.28638	-978.32117	668.87964	1399.81726	-983.51575	661.28735	1087.01404	-976.21869	797.68146	1335.28809	-988.48401	855.56207	1173.89917	-890.75891	628.01666	1219.15784	-1130.33826	741.21661	1374.00427	-1207.79321	761.71564	1183.98816	-1217.90820	803.49817	1071.10437	-1202.68542	902.27966	995.75323	-1155.69495	996.43201	938.46277	-1198.86572	978.18298	910.39807	-1184.56055	1053.97522	879.31525	-817.95392	740.54376	1355.15576	-749.38885	723.99164	1131.89502	-738.86169	727.85120	1017.96960	-736.49353	723.27472	880.68823	-771.82062	736.57288	780.45050	-727.01141	705.07629	781.35840	-742.06079	706.34149	705.24481	-1110.14880	819.61517	925.80792	-872.51727	839.05487	936.42773	-1046.24878	662.67590	943.86835	-898.60864	673.69299	961.10626	-1164.28125	792.02112	621.78400	-1154.50256	824.34314	444.72531	-1139.26672	666.94543	329.11484	-1087.44763	510.10602	198.96803	-1042.71021	463.29077	207.17868	-1078.47900	570.78369	61.46180	-833.20172	826.71454	639.46436	-885.72333	871.31976	469.81824	-884.10474	828.61078	278.33432	-938.23761	787.01837	68.78644	-986.37103	737.22058	38.90573	-960.74445	924.76074	32.10113				-979.10468	712.84387	1667.80176															 
164	1.630	-1019.69537	822.70300	1626.00708	-889.58600	795.94965	1623.28577	-1042.07336	702.89441	1568.21594	-913.49377	681.53888	1565.68640	-977.62079	682.13324	1402.02112	-982.67035	674.32684	1089.19116	-975.63983	810.82581	1337.42419	-987.53558	868.54730	1175.99744	-889.92401	641.00153	1221.60510	-1129.63733	753.92212	1376.47510	-1207.04468	772.49615	1185.93250	-1216.82617	813.13770	1072.31934	-1202.23120	909.44543	993.19482	-1155.71582	1001.58777	932.09668	-1199.07178	982.16589	905.09711	-1185.32251	1056.44507	871.02338	-817.34167	753.97742	1357.24182	-748.58765	740.76257	1133.73401	-737.63654	746.61536	1020.12799	-735.01300	744.47577	882.88806	-770.08801	759.25012	782.87872	-724.88409	728.32281	783.25800	-739.26471	732.04315	707.25647	-1108.22583	833.79010	928.96106	-870.64026	851.11896	937.90704	-1046.31177	676.44580	946.66370	-898.33728	686.31433	962.67548	-1163.38416	812.11200	624.95776	-1153.42639	848.95471	448.93167	-1138.73706	695.40057	328.58279	-1087.92395	542.47797	192.94138	-1043.83032	494.26068	198.46576	-1077.25208	611.05640	59.31678	-833.62567	835.08325	640.17651	-885.56628	875.15308	469.31210	-884.16559	829.36566	278.44980	-938.30383	786.96338	69.01841	-986.58960	737.27313	39.26384	-960.69250	924.77155	32.03458				-984.57251	724.78198	1674.97961															 
165	1.640	-1018.45337	836.35065	1627.69836	-888.46497	809.64447	1624.75610	-1041.01025	716.34583	1570.50647	-912.40430	695.13672	1567.60901	-976.96326	695.32666	1404.00757	-981.89966	687.29462	1091.20105	-974.93848	823.86096	1339.34180	-986.37653	881.49481	1177.88525	-889.15289	653.83917	1223.89331	-1128.85974	766.83240	1378.64441	-1206.26587	783.42474	1187.64648	-1216.10107	822.73102	1073.27368	-1201.87585	916.35712	990.35168	-1155.69971	1006.11719	925.32019	-1199.43799	985.65234	899.57330	-1186.11267	1058.33984	862.46094	-816.76172	767.08948	1359.25354	-747.56891	757.56952	1135.81799	-736.32684	765.57141	1022.39532	-733.15503	765.90161	885.09094	-767.54578	783.24725	785.71747	-722.78674	751.93872	785.28003	-736.37073	758.30554	709.52478	-1104.38708	850.26263	933.41772	-868.56744	862.93634	939.12549	-1046.36316	690.11804	949.35809	-898.41504	699.19983	964.04584	-1162.45190	831.74921	628.20367	-1152.06519	872.98309	453.13953	-1138.14600	724.15063	327.17792	-1088.35815	575.80640	185.67294	-1044.86462	526.41913	188.35782	-1076.08850	652.81445	57.34151	-833.35968	843.70502	640.68176	-885.20526	878.72778	468.75354	-883.85211	830.28265	278.53186	-938.34436	786.93646	69.25726	-986.83643	737.32208	39.52675	-960.61401	924.79016	31.97799				-983.59198	739.01208	1677.39270															 
